<svg width="130" height="59" viewBox="0 0 130 59" fill="none" xmlns="http://www.w3.org/2000/svg">
<path d="M15.1166 25.7616L15.1024 28H2.59263V7.69816H15.1024V9.93661H5.3411V16.6803H13.2465V18.8337H5.3411V25.7616H15.1166ZM27.0927 17.0628C26.6204 16.43 26.1104 15.9908 25.5626 15.7452C25.0148 15.4902 24.4009 15.3627 23.7208 15.3627C22.3891 15.3627 21.3643 15.8397 20.6465 16.7936C19.9287 17.7475 19.5698 19.1076 19.5698 20.8738C19.5698 21.8089 19.6501 22.6117 19.8106 23.2823C19.9712 23.9434 20.2073 24.4912 20.519 24.9257C20.8307 25.3507 21.2132 25.6624 21.6666 25.8607C22.1199 26.0591 22.6347 26.1582 23.2108 26.1582C24.0419 26.1582 24.7645 25.9693 25.3784 25.5915C26.0018 25.2138 26.5732 24.6801 27.0927 23.9906V17.0628ZM29.6144 7.13147V28H28.1127C27.7538 28 27.5271 27.8253 27.4327 27.4758L27.206 25.7332C26.5921 26.4699 25.8932 27.065 25.1092 27.5183C24.3253 27.9717 23.4186 28.1983 22.3891 28.1983C21.5674 28.1983 20.8212 28.0425 20.1506 27.7308C19.4801 27.4097 18.9086 26.9422 18.4364 26.3283C17.9641 25.7143 17.6005 24.9493 17.3455 24.0331C17.0905 23.117 16.963 22.0639 16.963 20.8738C16.963 19.816 17.1047 18.8337 17.388 17.927C17.6714 17.0108 18.0775 16.2175 18.6064 15.5469C19.1353 14.8763 19.7823 14.3521 20.5473 13.9743C21.3218 13.5871 22.1907 13.3934 23.1541 13.3934C24.0325 13.3934 24.7834 13.5446 25.4067 13.8468C26.0395 14.1396 26.6015 14.5504 27.0927 15.0794V7.13147H29.6144ZM45.3989 13.6485V28H43.8971C43.5382 28 43.3116 27.8253 43.2171 27.4758L43.0188 25.9316C42.3954 26.621 41.6965 27.1783 40.922 27.6033C40.1475 28.0189 39.2597 28.2267 38.2585 28.2267C37.4746 28.2267 36.7804 28.0992 36.1759 27.8442C35.5809 27.5797 35.0803 27.2113 34.6742 26.7391C34.2681 26.2669 33.9611 25.6954 33.7533 25.0249C33.555 24.3543 33.4558 23.6128 33.4558 22.8006V13.6485H35.9776V22.8006C35.9776 23.8867 36.2232 24.7273 36.7143 25.3224C37.2149 25.9174 37.9752 26.2149 38.9952 26.2149C39.7414 26.2149 40.4356 26.0402 41.0778 25.6907C41.7295 25.3318 42.3293 24.8407 42.8771 24.2173V13.6485H45.3989ZM59.3854 16.1986C59.3098 16.3025 59.2343 16.3828 59.1587 16.4394C59.0832 16.4961 58.9793 16.5244 58.847 16.5244C58.7054 16.5244 58.5495 16.4678 58.3795 16.3544C58.2095 16.2316 57.997 16.0994 57.742 15.9577C57.4964 15.8161 57.1895 15.6886 56.8211 15.5752C56.4622 15.4524 56.0183 15.391 55.4894 15.391C54.781 15.391 54.1576 15.5185 53.6193 15.7736C53.0809 16.0191 52.6276 16.378 52.2592 16.8503C51.9003 17.3225 51.6264 17.8939 51.4375 18.5645C51.258 19.2351 51.1683 19.986 51.1683 20.8171C51.1683 21.6861 51.2675 22.4606 51.4658 23.1406C51.6642 23.8112 51.9428 24.3779 52.3017 24.8407C52.6701 25.294 53.1093 25.6435 53.6193 25.8891C54.1387 26.1252 54.7196 26.2432 55.3619 26.2432C55.9758 26.2432 56.4811 26.1724 56.8778 26.0307C57.2745 25.8796 57.6003 25.7143 57.8553 25.5349C58.1198 25.3554 58.337 25.1949 58.507 25.0532C58.6865 24.9021 58.8612 24.8265 59.0312 24.8265C59.239 24.8265 59.3996 24.9068 59.5129 25.0674L60.2213 25.9882C59.9096 26.3755 59.5554 26.706 59.1587 26.9799C58.762 27.2539 58.3323 27.4853 57.8695 27.6742C57.4161 27.8536 56.9392 27.9858 56.4386 28.0708C55.938 28.1558 55.428 28.1983 54.9085 28.1983C54.0112 28.1983 53.1754 28.0331 52.4009 27.7025C51.6358 27.3719 50.97 26.8949 50.4033 26.2716C49.8366 25.6388 49.3927 24.8643 49.0716 23.9481C48.7504 23.032 48.5899 21.9883 48.5899 20.8171C48.5899 19.7499 48.7363 18.7629 49.0291 17.8562C49.3313 16.9495 49.7658 16.1702 50.3324 15.5185C50.9086 14.8574 51.6122 14.3427 52.4434 13.9743C53.284 13.606 54.2474 13.4218 55.3335 13.4218C56.3441 13.4218 57.232 13.5871 57.997 13.9176C58.7715 14.2388 59.4562 14.6968 60.0513 15.2919L59.3854 16.1986ZM70.7062 21.5397C69.5445 21.5775 68.5528 21.6719 67.7311 21.823C66.9188 21.9647 66.253 22.1536 65.7335 22.3897C65.2235 22.6258 64.8504 22.9045 64.6143 23.2256C64.3876 23.5467 64.2742 23.9056 64.2742 24.3023C64.2742 24.6801 64.3356 25.006 64.4584 25.2799C64.5812 25.5538 64.7465 25.7804 64.9543 25.9599C65.1715 26.1299 65.4218 26.2574 65.7052 26.3424C65.9979 26.418 66.3096 26.4558 66.6402 26.4558C67.0841 26.4558 67.4902 26.4133 67.8586 26.3283C68.2269 26.2338 68.5717 26.1016 68.8928 25.9316C69.2234 25.7616 69.5351 25.5585 69.8279 25.3224C70.1301 25.0862 70.4229 24.8171 70.7062 24.5148V21.5397ZM62.56 15.6744C63.3534 14.9094 64.2081 14.3379 65.1243 13.9601C66.0404 13.5823 67.0558 13.3934 68.1703 13.3934C68.9731 13.3934 69.6862 13.5257 70.3095 13.7901C70.9329 14.0546 71.4571 14.4229 71.8821 14.8952C72.3071 15.3674 72.6283 15.9388 72.8455 16.6094C73.0627 17.28 73.1714 18.0167 73.1714 18.8195V28H72.0521C71.8066 28 71.6177 27.9622 71.4854 27.8867C71.3532 27.8017 71.2493 27.6411 71.1738 27.405L70.8904 26.0449C70.5126 26.3944 70.1443 26.706 69.7854 26.9799C69.4264 27.2444 69.0486 27.4711 68.652 27.66C68.2553 27.8394 67.8303 27.9764 67.3769 28.0708C66.933 28.1747 66.4371 28.2267 65.8893 28.2267C65.3321 28.2267 64.8079 28.1511 64.3167 28C63.8256 27.8394 63.3959 27.6033 63.0275 27.2916C62.6686 26.9799 62.3805 26.588 62.1633 26.1157C61.9555 25.634 61.8516 25.0674 61.8516 24.4157C61.8516 23.849 62.0075 23.3059 62.3192 22.7864C62.6308 22.2575 63.1361 21.79 63.8351 21.3838C64.534 20.9777 65.4454 20.6471 66.5694 20.3921C67.6933 20.1277 69.0723 19.9765 70.7062 19.9388V18.8195C70.7062 17.705 70.4654 16.8644 69.9837 16.2978C69.502 15.7216 68.7984 15.4335 67.8728 15.4335C67.2494 15.4335 66.7252 15.5138 66.3002 15.6744C65.8846 15.8255 65.521 16.0002 65.2093 16.1986C64.9071 16.3875 64.6426 16.5622 64.4159 16.7228C64.1987 16.8739 63.9815 16.9495 63.7642 16.9495C63.5942 16.9495 63.4478 16.907 63.325 16.8219C63.2022 16.7275 63.0984 16.6142 63.0134 16.4819L62.56 15.6744Z" fill="#4F3C8E"/>
<path d="M18.8531 51.707L12.8561 31.1H18.3601L21.4692 44.6032H21.6403L25.1922 31.1H29.6799L33.2318 44.6334H33.4028L36.5221 31.1H42.016L36.029 51.707H31.2294L27.5165 39.21H27.3555L23.6426 51.707H18.8531ZM49.5826 51.9988C47.966 51.9988 46.5707 51.6802 45.3968 51.0429C44.2296 50.399 43.3307 49.4833 42.7002 48.296C42.0763 47.102 41.7644 45.6832 41.7644 44.0397C41.7644 42.4432 42.0797 41.048 42.7102 39.8539C43.3408 38.6532 44.2296 37.7208 45.3767 37.0567C46.5238 36.3859 47.8754 36.0505 49.4317 36.0505C50.5318 36.0505 51.538 36.2215 52.4503 36.5636C53.3626 36.9058 54.1508 37.4122 54.8149 38.083C55.479 38.7538 55.9955 39.5823 56.3644 40.5683C56.7334 41.5477 56.9178 42.6713 56.9178 43.9391V45.1667H43.485V42.3091H52.3396C52.3329 41.7858 52.2088 41.3196 51.9673 40.9105C51.7258 40.5013 51.3938 40.1826 50.9712 39.9546C50.5553 39.7198 50.0757 39.6024 49.5323 39.6024C48.9822 39.6024 48.4892 39.7265 48.0532 39.9747C47.6172 40.2162 47.2717 40.5482 47.0168 40.9708C46.7619 41.3867 46.6277 41.8596 46.6143 42.3896V45.2975C46.6143 45.9281 46.7384 46.4815 46.9866 46.9577C47.2348 47.4273 47.587 47.7929 48.0431 48.0545C48.4993 48.3161 49.0426 48.4469 49.6732 48.4469C50.1092 48.4469 50.505 48.3866 50.8605 48.2658C51.216 48.1451 51.5212 47.9673 51.7761 47.7325C52.031 47.4977 52.2222 47.2093 52.3497 46.8672L56.8675 46.998C56.6797 48.0109 56.2672 48.893 55.6299 49.6443C54.9994 50.3889 54.1709 50.9691 53.1446 51.385C52.1183 51.7942 50.9309 51.9988 49.5826 51.9988ZM59.4308 51.707V31.1H64.3512V38.898H64.4518C64.6531 38.4285 64.9381 37.9757 65.3071 37.5397C65.6827 37.1036 66.159 36.7481 66.7359 36.4731C67.3195 36.1913 68.0171 36.0505 68.8288 36.0505C69.9021 36.0505 70.9049 36.3322 71.8374 36.8957C72.7765 37.4592 73.5345 38.3279 74.1114 39.5018C74.6883 40.6757 74.9767 42.1716 74.9767 43.9894C74.9767 45.7402 74.6983 47.2059 74.1416 48.3866C73.5915 49.5672 72.8469 50.4526 71.9078 51.0429C70.9754 51.6332 69.939 51.9284 68.7986 51.9284C68.0205 51.9284 67.3463 51.8009 66.7761 51.546C66.206 51.2911 65.7263 50.9557 65.3373 50.5398C64.9549 50.1239 64.6598 49.6779 64.4518 49.2016H64.3009V51.707H59.4308ZM64.2506 43.9794C64.2506 44.8112 64.3613 45.5356 64.5826 46.1528C64.8107 46.7699 65.136 47.2495 65.5586 47.5917C65.988 47.9271 66.5011 48.0948 67.0981 48.0948C67.7019 48.0948 68.215 47.9271 68.6376 47.5917C69.0602 47.2495 69.3789 46.7699 69.5935 46.1528C69.8149 45.5356 69.9256 44.8112 69.9256 43.9794C69.9256 43.1476 69.8149 42.4265 69.5935 41.816C69.3789 41.2056 69.0602 40.7327 68.6376 40.3973C68.2217 40.0619 67.7086 39.8942 67.0981 39.8942C66.4944 39.8942 65.9812 40.0585 65.5586 40.3872C65.136 40.7159 64.8107 41.1855 64.5826 41.7959C64.3613 42.4063 64.2506 43.1342 64.2506 43.9794Z" fill="#4F3C8E"/>
<path d="M98.8256 18.0527H86.4723C84.8979 18.0527 83.6216 19.3291 83.6216 20.9035V41.809C83.6216 43.3835 84.8979 44.6597 86.4723 44.6597H114.98C116.554 44.6597 117.831 43.3835 117.831 41.809V33.2567" stroke="#4F3C8E" stroke-width="3.801" stroke-linecap="round" stroke-linejoin="round"/>
<path d="M100.726 44.6602V52.2622" stroke="#4F3C8E" stroke-width="3.801" stroke-linecap="round" stroke-linejoin="round"/>
<path d="M91.2241 52.2617H110.229" stroke="#4F3C8E" stroke-width="3.801" stroke-linecap="round" stroke-linejoin="round"/>
<path d="M120.949 24.2702L114.505 27.7779L108.061 24.2702V20.5641L106.22 19.5742V25.3121L114.505 29.8221L122.79 25.3121V19.5742L120.949 20.5641V24.2702Z" fill="#4F3C8E"/>
<path d="M114.504 7.30664L101.617 13.7736V15.3178L114.504 22.2465L125.551 16.3077V21.2276H127.392V13.7736L114.504 7.30664ZM123.71 15.2593L121.869 16.2491L114.504 20.2087L107.14 16.2491L105.299 15.2593L104.023 14.5732L114.504 9.31364L124.986 14.5732L123.71 15.2593Z" fill="#4F3C8E"/>
</svg>
